<?xml version="1.0" standalone="no"?>
<!DOCTYPE svg PUBLIC "-//W3C//DTD SVG 20010904//EN"
 "http://www.w3.org/TR/2001/REC-SVG-20010904/DTD/svg10.dtd">
<svg version="1.0" xmlns="http://www.w3.org/2000/svg"
 width="512.000000pt" height="512.000000pt" viewBox="0 0 512.000000 512.000000"
 preserveAspectRatio="xMidYMid meet">
<metadata>
Created by potrace 1.11, written by Peter Selinger 2001-2013
</metadata>
<g transform="translate(0.000000,512.000000) scale(0.100000,-0.100000)"
fill="#000000" stroke="none">
<path d="M2059 4276 c-2 -2 -33 -7 -68 -10 -134 -13 -368 -83 -518 -154 -262
-125 -509 -339 -684 -591 -147 -213 -251 -490 -285 -761 -11 -93 -11 -341 1
-412 7 -37 11 -80 11 -96 -1 -17 2 -28 5 -27 3 2 11 -26 19 -63 23 -117 86
-292 106 -292 35 0 214 66 214 79 0 3 -6 18 -14 33 -16 30 -73 207 -81 253
-21 111 -32 207 -34 308 -1 64 0 117 2 117 3 0 19 -22 37 -49 19 -31 51 -62
83 -82 106 -67 123 -85 141 -146 63 -216 97 -283 162 -324 39 -24 30 -26 163
33 25 11 52 21 60 23 9 2 38 14 64 27 l48 24 -72 17 c-116 28 -179 63 -179 98
0 23 54 86 91 105 36 18 83 18 99 -1 7 -8 24 -14 39 -13 14 1 40 -2 58 -6 50
-12 95 30 137 129 19 44 37 91 41 105 14 54 50 81 128 95 56 10 65 15 94 54
26 33 32 50 29 74 -6 45 -13 73 -24 94 -5 10 -8 45 -7 78 3 81 -4 97 -70 145
-31 23 -54 47 -52 53 3 10 107 71 175 103 18 9 15 22 -7 29 -28 9 -85 70 -138
148 -60 89 -106 134 -159 157 -36 16 -67 24 -179 45 -16 4 -75 9 -130 12 -55
3 -101 6 -102 7 -4 4 97 79 151 113 70 44 217 117 297 147 l65 24 14 -21 c44
-68 80 -139 80 -160 0 -10 21 -39 48 -65 46 -47 127 -91 242 -134 44 -16 73
-39 145 -112 84 -85 141 -126 178 -126 27 0 46 29 67 103 25 88 80 202 117
242 16 17 48 46 72 65 l44 34 -6 67 -6 67 47 -20 c206 -90 386 -229 560 -429
l23 -26 -35 -21 c-21 -13 -48 -43 -67 -77 -55 -97 -94 -106 -219 -50 -86 39
-137 44 -181 18 -43 -25 -57 -65 -54 -146 5 -110 -14 -140 -93 -153 l-43 -6
30 -19 c46 -28 91 -36 146 -27 112 18 131 20 164 23 19 1 38 9 43 19 9 15 16
13 76 -20 37 -21 80 -45 96 -55 l29 -18 -129 -84 c-139 -90 -271 -169 -399
-238 -111 -60 -391 -200 -445 -223 -25 -10 -77 -34 -117 -52 -129 -60 -428
-181 -593 -241 -131 -47 -292 -103 -310 -108 -8 -2 -42 -13 -75 -25 -146 -51
-517 -159 -595 -173 -42 -8 -131 11 -146 30 -20 27 -17 76 9 114 13 19 27 41
32 48 15 25 -57 -29 -105 -79 -83 -84 -101 -157 -54 -225 35 -52 59 -71 134
-108 61 -30 72 -32 175 -32 173 0 281 18 496 81 68 21 134 38 146 38 12 1 20
3 17 5 -2 2 69 32 159 66 139 53 260 103 381 157 129 58 603 300 781 399 265
147 263 146 297 167 15 9 80 49 144 87 64 39 133 80 153 92 20 13 43 26 51 30
8 3 17 10 20 14 3 4 12 9 20 11 8 2 23 11 34 21 11 9 24 17 29 17 10 0 -6
-236 -16 -247 -3 -2 -17 4 -33 13 -28 16 -31 15 -99 -23 -38 -22 -125 -69
-192 -104 -68 -35 -123 -67 -123 -71 0 -4 16 -15 35 -24 19 -9 36 -20 36 -25
1 -5 2 -15 3 -21 3 -22 -14 -65 -33 -82 -13 -12 -39 -17 -86 -18 -60 -1 -74
-6 -126 -40 -33 -20 -59 -41 -59 -45 0 -5 -13 -21 -28 -38 -40 -44 -116 -163
-170 -267 -64 -123 -64 -164 2 -300 59 -123 76 -178 76 -255 l0 -62 -52 -10
c-138 -28 -181 -32 -328 -32 -154 -1 -400 38 -400 63 0 5 -5 6 -10 3 -10 -6
-56 6 -117 32 -18 7 -35 13 -38 13 -10 0 -144 70 -149 78 -3 5 15 24 40 42 92
66 172 159 221 257 27 54 31 73 28 118 -4 54 15 95 44 95 6 0 11 4 11 9 0 12
53 24 115 26 28 0 62 4 76 9 31 9 57 54 36 62 -7 2 -87 -24 -178 -59 -90 -36
-221 -84 -291 -107 -110 -36 -128 -45 -129 -64 0 -11 -2 -30 -5 -41 -2 -11 -6
-40 -9 -65 -3 -25 -9 -69 -14 -99 -5 -30 -8 -76 -7 -102 1 -29 -3 -45 -9 -42
-52 30 -134 96 -129 105 4 7 2 8 -4 4 -10 -6 -54 28 -119 93 -17 16 -31 21
-46 18 -12 -4 -71 -19 -130 -35 l-108 -28 77 -82 c150 -161 365 -314 564 -399
232 -99 439 -141 690 -141 212 1 404 33 585 100 620 228 1050 773 1128 1429
12 102 14 318 4 389 -3 19 -8 58 -12 85 -4 28 -9 52 -12 55 -2 2 -43 -16 -91
-40 -80 -42 -88 -49 -119 -105 -41 -75 -42 -66 -3 23 l31 68 186 92 c102 51
187 91 188 90 2 -2 6 -30 9 -63 8 -79 14 -125 26 -211 10 -64 6 -156 -7 -177
-3 -4 9 -13 27 -20 31 -12 31 -12 27 -74 -3 -35 -3 -63 -1 -63 15 0 274 154
275 163 1 7 2 26 4 43 4 53 15 177 20 219 2 22 6 74 10 115 12 145 25 274 28
275 1 1 42 23 90 49 115 61 250 149 282 184 56 60 72 142 41 216 -27 64 -121
92 -221 65 -22 -6 -113 -46 -203 -90 -89 -43 -168 -79 -176 -79 -7 0 -46 16
-87 36 -214 105 -422 205 -482 233 l-69 32 -94 -62 c-61 -40 -93 -67 -90 -76
3 -7 4 -13 2 -13 -1 0 -31 28 -67 63 -215 211 -476 360 -767 438 -94 25 -99
26 -159 35 -26 3 -57 9 -68 11 -24 6 -391 14 -396 9z m1725 -810 c64 -60 124
-115 133 -121 14 -11 10 -16 -28 -37 -90 -52 -78 -56 -128 46 -24 50 -48 93
-51 96 -4 3 -20 28 -36 55 -15 28 -34 56 -42 64 -17 18 5 35 23 18 6 -7 64
-61 129 -121z m-504 -310 c0 -1 -24 -18 -52 -36 -42 -26 -49 -28 -33 -10 11
13 34 29 50 36 34 15 35 15 35 10z m-145 -96 c-3 -5 -12 -10 -18 -10 -7 0 -6
4 3 10 19 12 23 12 15 0z m494 -469 c-6 -16 -18 -36 -27 -44 -26 -24 -171 -87
-177 -77 -6 9 182 148 202 149 9 1 9 -6 2 -28z"/>
<path d="M2368 3044 c-49 -26 -27 -74 26 -58 12 4 29 7 40 8 28 2 40 43 16 56
-26 14 -50 12 -82 -6z"/>
<path d="M2047 2724 c-29 -16 -37 -51 -12 -60 23 -9 87 9 99 28 22 36 -38 57
-87 32z"/>
</g>
</svg>
